<mxfile host="app.diagrams.net" modified="2022-07-27T09:42:47.219Z" agent="5.0 (Macintosh; Intel Mac OS X 10_15_7) AppleWebKit/537.36 (KHTML, like Gecko) Chrome/103.0.0.0 Safari/537.36" etag="M-tLX-bK1dAeMz_y1Nso" version="20.1.1" type="github">
  <diagram id="n5umFkQqmq_fH0kpe_gc" name="Page-1">
    <mxGraphModel dx="1868" dy="659" grid="1" gridSize="10" guides="1" tooltips="1" connect="1" arrows="1" fold="1" page="1" pageScale="1" pageWidth="850" pageHeight="1100" math="0" shadow="0">
      <root>
        <mxCell id="0" />
        <mxCell id="1" parent="0" />
        <mxCell id="0N5lO8uYQMU0V-dwggI0-20" value="" style="endArrow=classic;html=1;rounded=0;fontSize=15;strokeWidth=1.5;exitX=0.5;exitY=1;exitDx=0;exitDy=0;entryX=0.5;entryY=0;entryDx=0;entryDy=0;" edge="1" parent="1" source="0N5lO8uYQMU0V-dwggI0-17" target="0N5lO8uYQMU0V-dwggI0-1">
          <mxGeometry width="50" height="50" relative="1" as="geometry">
            <mxPoint x="680" y="250" as="sourcePoint" />
            <mxPoint x="610" y="330" as="targetPoint" />
          </mxGeometry>
        </mxCell>
        <mxCell id="0N5lO8uYQMU0V-dwggI0-21" value="" style="endArrow=classic;html=1;rounded=0;fontSize=15;strokeWidth=1.5;exitX=0.5;exitY=1;exitDx=0;exitDy=0;" edge="1" parent="1" source="0N5lO8uYQMU0V-dwggI0-16">
          <mxGeometry width="50" height="50" relative="1" as="geometry">
            <mxPoint x="700" y="170" as="sourcePoint" />
            <mxPoint x="600" y="320" as="targetPoint" />
          </mxGeometry>
        </mxCell>
        <mxCell id="0N5lO8uYQMU0V-dwggI0-1" value="&lt;font style=&quot;font-size: 18px;&quot;&gt;EVM run a contract&lt;/font&gt;" style="rounded=0;whiteSpace=wrap;html=1;fillColor=#d5e8d4;strokeColor=#82b366;" vertex="1" parent="1">
          <mxGeometry x="510" y="320" width="180" height="80" as="geometry" />
        </mxCell>
        <mxCell id="0N5lO8uYQMU0V-dwggI0-2" value="&lt;font style=&quot;font-size: 15px;&quot;&gt;BlockContext&lt;/font&gt;" style="rounded=1;whiteSpace=wrap;html=1;fillColor=#dae8fc;strokeColor=#6c8ebf;" vertex="1" parent="1">
          <mxGeometry x="280" y="180" width="140" height="60" as="geometry" />
        </mxCell>
        <mxCell id="0N5lO8uYQMU0V-dwggI0-3" value="&lt;font style=&quot;font-size: 15px;&quot;&gt;TxContext&lt;/font&gt;" style="rounded=1;whiteSpace=wrap;html=1;fillColor=#dae8fc;strokeColor=#6c8ebf;" vertex="1" parent="1">
          <mxGeometry x="440" y="180" width="140" height="60" as="geometry" />
        </mxCell>
        <mxCell id="0N5lO8uYQMU0V-dwggI0-4" value="" style="endArrow=classic;html=1;rounded=0;fontSize=18;strokeWidth=1.5;exitX=0.5;exitY=1;exitDx=0;exitDy=0;entryX=0.5;entryY=0;entryDx=0;entryDy=0;" edge="1" parent="1" source="0N5lO8uYQMU0V-dwggI0-2" target="0N5lO8uYQMU0V-dwggI0-1">
          <mxGeometry width="50" height="50" relative="1" as="geometry">
            <mxPoint x="400" y="340" as="sourcePoint" />
            <mxPoint x="450" y="290" as="targetPoint" />
          </mxGeometry>
        </mxCell>
        <mxCell id="0N5lO8uYQMU0V-dwggI0-5" value="" style="endArrow=classic;html=1;rounded=0;fontSize=18;strokeWidth=1.5;exitX=0.5;exitY=1;exitDx=0;exitDy=0;entryX=0.5;entryY=0;entryDx=0;entryDy=0;" edge="1" parent="1" source="0N5lO8uYQMU0V-dwggI0-3" target="0N5lO8uYQMU0V-dwggI0-1">
          <mxGeometry width="50" height="50" relative="1" as="geometry">
            <mxPoint x="290" y="250" as="sourcePoint" />
            <mxPoint x="410" y="330" as="targetPoint" />
          </mxGeometry>
        </mxCell>
        <mxCell id="0N5lO8uYQMU0V-dwggI0-6" value="Tools" style="rounded=0;whiteSpace=wrap;html=1;fontSize=18;fillColor=#d5e8d4;strokeColor=#82b366;" vertex="1" parent="1">
          <mxGeometry y="180" width="120" height="60" as="geometry" />
        </mxCell>
        <mxCell id="0N5lO8uYQMU0V-dwggI0-7" value="emptyCodeHash" style="rounded=0;whiteSpace=wrap;html=1;fontSize=18;" vertex="1" parent="1">
          <mxGeometry x="-120" y="280" width="160" height="60" as="geometry" />
        </mxCell>
        <mxCell id="0N5lO8uYQMU0V-dwggI0-8" value="precompile" style="rounded=0;whiteSpace=wrap;html=1;fontSize=18;" vertex="1" parent="1">
          <mxGeometry x="80" y="280" width="160" height="60" as="geometry" />
        </mxCell>
        <mxCell id="0N5lO8uYQMU0V-dwggI0-9" value="" style="endArrow=classic;html=1;rounded=0;fontSize=18;strokeWidth=1.5;exitX=0.5;exitY=1;exitDx=0;exitDy=0;entryX=0.5;entryY=0;entryDx=0;entryDy=0;" edge="1" parent="1" source="0N5lO8uYQMU0V-dwggI0-6" target="0N5lO8uYQMU0V-dwggI0-7">
          <mxGeometry width="50" height="50" relative="1" as="geometry">
            <mxPoint x="310" y="410" as="sourcePoint" />
            <mxPoint x="360" y="360" as="targetPoint" />
          </mxGeometry>
        </mxCell>
        <mxCell id="0N5lO8uYQMU0V-dwggI0-10" value="" style="endArrow=classic;html=1;rounded=0;fontSize=18;strokeWidth=1.5;exitX=0.5;exitY=1;exitDx=0;exitDy=0;entryX=0.5;entryY=0;entryDx=0;entryDy=0;" edge="1" parent="1" source="0N5lO8uYQMU0V-dwggI0-6" target="0N5lO8uYQMU0V-dwggI0-8">
          <mxGeometry width="50" height="50" relative="1" as="geometry">
            <mxPoint x="70" y="250" as="sourcePoint" />
            <mxPoint x="-30" y="290" as="targetPoint" />
          </mxGeometry>
        </mxCell>
        <mxCell id="0N5lO8uYQMU0V-dwggI0-11" value="&lt;font style=&quot;font-size: 16px;&quot;&gt;create使用&lt;br&gt;防止合约部署到已经部署了合约的地址&lt;/font&gt;" style="text;html=1;strokeColor=none;fillColor=none;align=center;verticalAlign=middle;whiteSpace=wrap;rounded=0;fontSize=18;" vertex="1" parent="1">
          <mxGeometry x="-130" y="350" width="180" height="60" as="geometry" />
        </mxCell>
        <mxCell id="0N5lO8uYQMU0V-dwggI0-12" value="call、callCode、DelegateCall、StaticCall使用" style="text;html=1;strokeColor=none;fillColor=none;align=center;verticalAlign=middle;whiteSpace=wrap;rounded=0;fontSize=16;" vertex="1" parent="1">
          <mxGeometry x="65" y="345" width="190" height="70" as="geometry" />
        </mxCell>
        <mxCell id="0N5lO8uYQMU0V-dwggI0-14" value="&lt;font style=&quot;font-size: 15px;&quot;&gt;StateDB、depth&lt;/font&gt;" style="rounded=1;whiteSpace=wrap;html=1;fillColor=#dae8fc;strokeColor=#6c8ebf;" vertex="1" parent="1">
          <mxGeometry x="600" y="180" width="140" height="60" as="geometry" />
        </mxCell>
        <mxCell id="0N5lO8uYQMU0V-dwggI0-15" value="&lt;font style=&quot;font-size: 15px;&quot;&gt;chainConfig、chainRules、Config&lt;/font&gt;" style="rounded=1;whiteSpace=wrap;html=1;fillColor=#dae8fc;strokeColor=#6c8ebf;" vertex="1" parent="1">
          <mxGeometry x="760" y="180" width="140" height="60" as="geometry" />
        </mxCell>
        <mxCell id="0N5lO8uYQMU0V-dwggI0-16" value="&lt;font style=&quot;font-size: 15px;&quot;&gt;interpreter&lt;/font&gt;" style="rounded=1;whiteSpace=wrap;html=1;fillColor=#f8cecc;strokeColor=#b85450;" vertex="1" parent="1">
          <mxGeometry x="400" y="100" width="140" height="60" as="geometry" />
        </mxCell>
        <mxCell id="0N5lO8uYQMU0V-dwggI0-17" value="&lt;font style=&quot;font-size: 15px;&quot;&gt;abort、callGasTemp&lt;/font&gt;" style="rounded=1;whiteSpace=wrap;html=1;fillColor=#dae8fc;strokeColor=#6c8ebf;" vertex="1" parent="1">
          <mxGeometry x="620" y="100" width="150" height="60" as="geometry" />
        </mxCell>
        <mxCell id="0N5lO8uYQMU0V-dwggI0-18" value="" style="endArrow=classic;html=1;rounded=0;fontSize=15;strokeWidth=1.5;exitX=0.5;exitY=1;exitDx=0;exitDy=0;entryX=0.5;entryY=0;entryDx=0;entryDy=0;" edge="1" parent="1" source="0N5lO8uYQMU0V-dwggI0-14" target="0N5lO8uYQMU0V-dwggI0-1">
          <mxGeometry width="50" height="50" relative="1" as="geometry">
            <mxPoint x="610" y="310" as="sourcePoint" />
            <mxPoint x="660" y="260" as="targetPoint" />
          </mxGeometry>
        </mxCell>
        <mxCell id="0N5lO8uYQMU0V-dwggI0-19" value="" style="endArrow=classic;html=1;rounded=0;fontSize=15;strokeWidth=1.5;exitX=0.5;exitY=1;exitDx=0;exitDy=0;entryX=0.5;entryY=0;entryDx=0;entryDy=0;" edge="1" parent="1" source="0N5lO8uYQMU0V-dwggI0-15" target="0N5lO8uYQMU0V-dwggI0-1">
          <mxGeometry width="50" height="50" relative="1" as="geometry">
            <mxPoint x="680" y="250" as="sourcePoint" />
            <mxPoint x="610" y="330" as="targetPoint" />
          </mxGeometry>
        </mxCell>
        <mxCell id="0N5lO8uYQMU0V-dwggI0-22" value="EVM会根据给定的state（stateDB），以及提供的context来运行contract的代码（block、tx）&lt;br&gt;&lt;br&gt;interpreter作为解释器，把合约代码解释成byte/pc/op等东西，让EVM理解并执行&lt;br&gt;&lt;br&gt;EVM不能被复用，每次都要创建一个新的EVM实例，来运行contract代码" style="text;html=1;strokeColor=none;fillColor=none;align=center;verticalAlign=middle;whiteSpace=wrap;rounded=0;fontSize=15;" vertex="1" parent="1">
          <mxGeometry x="428.75" y="410" width="342.5" height="160" as="geometry" />
        </mxCell>
      </root>
    </mxGraphModel>
  </diagram>
</mxfile>
